<svg width="180" height="158" fill="none" xmlns="http://www.w3.org/2000/svg"><path d="M13.75 61.12c0-17.46.14-34.92-.07-52.38-.08-5.59 3.15-9.17 8.86-8.7 2.23.18 4.49-.02 6.73.05 3.63.11 6.47 2.81 6.71 6.42.13 1.99.08 3.99.08 5.98 0 33.92-.01 67.84-.02 101.76 0 3.26.08 3.35 3.33 3.36 1.58 0 3.16.04 4.74 0 2.07-.06 4.04.04 5.08 2.26 1.07 2.27 1.1 4.54-.35 6.62-3.33 4.77-6.73 9.48-10.11 14.21-3.33 4.66-6.68 9.31-10 13.98-2.69 3.78-4.82 3.84-7.49.12-6.54-9.11-13.12-18.19-19.53-27.39-1.02-1.46-1.66-3.47-1.7-5.25-.07-2.93 1.82-4.47 4.77-4.53 1.83-.04 3.66 0 5.49-.01 3.46-.01 3.47-.02 3.48-3.38V61.11v.01zm106.36-41.25H70c-5.89 0-8.84-2.96-8.99-8.85-.11-4.25.21-8.27 4.8-10.24 1.03-.44 2.23-.66 3.36-.66C103.16.08 137.15.07 171.14.09c5.29 0 8.13 3.1 8.43 8.36.49 8.57-2.69 11.69-11.34 11.52-16.03-.32-32.08-.09-48.12-.09v-.01zm-9.331 45.9h-40.88c-5.72 0-8.78-3.01-8.88-8.71-.02-1.08-.07-2.16 0-3.24.32-4.82 3.43-7.83 8.24-7.84 27.75-.03 55.51-.04 83.26-.01 5 0 8.03 3.12 8.13 8.09v.25c.75 8.78-2.93 11.78-11.24 11.55-12.87-.36-25.76-.09-38.64-.09h.01zM99.91 111.68c-9.97 0-19.95.01-29.92 0-5.88 0-8.9-3.02-8.97-8.87-.01-1.08-.07-2.16.02-3.24.36-4.65 3.52-7.68 8.15-7.68 20.53-.02 41.05-.03 61.58 0 4.77 0 7.77 2.91 8.07 7.61 0 .08 0 .17.01.25.66 8.43-1.84 12.35-11.26 12.01-9.21-.33-18.45-.07-27.67-.07l-.01-.01zm-11.07 45.9c-6.48 0-12.96.03-19.44-.01-5.06-.03-8.17-3.11-8.37-8.21-.05-1.24-.05-2.49.02-3.74.27-4.8 3.41-7.82 8.22-7.83 13.05-.03 26.09-.03 39.139 0 4.92 0 8.05 3.14 8.18 8.08.03 1.24.04 2.49 0 3.74-.13 4.77-3.29 7.93-8.05 7.96-6.56.04-13.13.01-19.69.01h-.01z" fill="#588C7F"/></svg>