<svg width="217" height="75" fill="none" xmlns="http://www.w3.org/2000/svg"><path d="M15.74 42.984V24.688h17.116c-2.173-1.986-3.31-4.161-3.158-6.86.125-2.225.973-4.16 2.667-5.634 3.441-2.994 8.317-2.911 11.503.17 2.672 2.584 4.081 7.845-.579 12.288h16.955v44.326H42.467c2.462-1.757 3.853-3.986 3.877-6.871.018-2.253-.798-4.232-2.421-5.854-3.176-3.172-8.47-3.24-11.73-.082-1.881 1.822-2.73 4.083-2.459 6.703.265 2.565 1.608 4.513 3.85 6.127H15.753V50.704c-1.888 2.785-4.206 4.283-7.34 4.322-2.374.027-4.426-.788-6.07-2.474-3.274-3.356-3.056-8.775.318-11.713 3.519-3.064 9.562-3.124 13.082 2.145h-.002zM193.497 62.75h-2.704c-.018-.375-.048-.724-.048-1.074-.002-5.64.05-11.28-.038-16.92-.025-1.538-.315-3.118-.768-4.592-.743-2.425-2.602-3.78-5.08-4.129-4.652-.653-8.222 1.404-11.095 5.13-.192.249-.174.694-.174 1.046-.01 6.474-.006 12.949-.006 19.423v1.071h-2.681V21.024h2.647v18.009c.394-.409.602-.625.808-.841 2.76-2.882 5.992-4.65 10.154-4.432 4.761.252 7.729 2.732 8.63 7.42.224 1.171.341 2.38.349 3.572.038 5.708.02 11.413.02 17.12 0 .259.016.519-.014.875v.002zM72.346 47.354c.006 3.18.293 6.138 1.874 8.827 2.09 3.557 5.34 4.872 9.332 4.75 2.73-.082 5.184-.961 7.439-2.473 1.25-.84 1.488-.741 2.419.829-.933.649-1.823 1.422-2.843 1.949-3.255 1.678-6.734 2.254-10.358 1.658-4.144-.683-7.227-2.922-8.9-6.733-2.353-5.355-2.535-10.818.147-16.127 3.586-7.099 13.342-7.914 18.164-4.023 2.67 2.153 3.85 5.05 4.202 8.349.06.563.04 1.133.08 1.698.065.927-.325 1.326-1.292 1.302-1.78-.046-3.566-.014-5.348-.012-4.61 0-9.218.004-13.828.006h-1.088zm.14-1.837H91.35c.144-5.008-2.606-9.232-7.727-9.686-5.807-.517-10.346 2.861-11.138 9.686zm77.446 17.148c-1.722.279-2.072.004-2.211-1.582-.075-.853-.208-1.7-.327-2.653-1.193.937-2.233 1.876-3.39 2.637-3.195 2.1-6.706 2.754-10.385 1.654-2.677-.8-4.206-2.785-4.622-5.529-.468-3.084.778-5.393 3.435-6.977 2.708-1.614 5.736-2.213 8.81-2.601 1.73-.218 3.483-.267 5.219-.449.297-.032.812-.37.804-.544-.103-2.023-.031-4.104-.509-6.046-.81-3.27-3.172-4.744-6.595-4.656-2.374.062-4.458.849-6.326 2.263-.294.222-.583.45-.878.673-1.397 1.061-1.763.973-2.55-.643 3.576-3.663 7.881-5.193 12.975-4.226 3.449.655 5.783 3.495 6.378 7.612.13.89.196 1.794.198 2.692.016 5.905.008 11.813.006 17.718 0 .199-.018.397-.032.655v.002zm-2.629-13.691c-4.121.182-8.075.406-11.802 1.926-1.601.653-3.063 1.564-3.689 3.32-1.189 3.333 1.236 6.781 4.872 6.991 4.269.249 7.57-1.616 10.365-4.608a.993.993 0 00.242-.616c.016-2.291.01-4.582.01-7.011l.002-.002zm67.1 9.402c-1.084.893-1.956 1.74-2.95 2.409-3.533 2.379-7.365 3.292-11.45 1.658-4.753-1.9-5.545-8.493-1.476-11.589 2.455-1.868 5.359-2.581 8.323-3.028 2.221-.334 4.478-.42 6.713-.663.269-.03.721-.34.725-.528.047-2.331.138-4.68-.769-6.905-.947-2.327-2.708-3.55-5.226-3.759-2.931-.242-5.498.607-7.751 2.453-.208.17-.426.327-.642.487-1.359.997-1.729.899-2.484-.703 3.667-3.739 8.077-5.297 13.26-4.137 3.386.757 5.145 3.236 5.87 6.442.313 1.386.414 2.84.426 4.265.046 5.605.018 11.213.018 16.82v1.055c-1.737.299-2.082.038-2.249-1.552-.091-.857-.212-1.71-.34-2.725h.002zm-.078-9.4c-4.13.17-8.091.386-11.796 1.936-1.107.463-2.207 1.214-2.987 2.11-1.36 1.569-1.209 3.467-.418 5.272.838 1.904 2.482 2.741 4.479 2.896 4.303.332 7.642-1.569 10.467-4.584.127-.135.243-.345.243-.521.016-2.325.01-4.648.01-7.111l.002.002zm-95.819 13.745h-2.696V37.173l-3.477-.213c-1.401-.088-1.577-.314-1.348-1.874h4.811c0-1.17.004-2.225 0-3.28-.01-2.47.323-4.849 1.811-6.935 1.842-2.58 4.507-3.32 7.495-3.234.951.027 1.892.302 2.799.456.125 1.84.125 1.814-1.565 1.72-.902-.05-1.827-.086-2.714.054-2.851.45-4.46 2.257-4.874 4.989-.301 1.992-.272 4.033-.4 6.184h9.385v2.068h-9.231v25.613h.004zm-17.88 0h-2.695V37.173l-3.477-.213c-1.401-.088-1.577-.314-1.349-1.874h4.812c0-1.17.004-2.225 0-3.28-.01-2.47.323-4.849 1.81-6.935 1.842-2.58 4.508-3.32 7.496-3.234.951.027 1.892.302 2.798.456.126 1.84.126 1.814-1.564 1.72-.903-.05-1.828-.086-2.714.054-2.851.45-4.46 2.257-4.874 4.989-.301 1.992-.273 4.033-.4 6.184h9.385v2.068h-9.232v25.613h.004zm55.485-25.615c-1.22 0-2.322.004-3.425 0-1.387-.006-1.536-.176-1.373-1.7l4.838-.389c.137-1.862.275-3.678.406-5.495.089-1.23.182-2.46.246-3.692.091-1.71.156-1.773 2.031-1.6v10.792h9.054v2.058h-9.023v18.824c0 .235-.004.467.006.701.147 3.763 3.055 5.453 6.441 3.74a7.76 7.76 0 00.868-.502c.983-.664 1.766-.445 2.35.657-2.085 2.423-6.192 3.413-9.102 2.19-2.132-.898-3.12-2.628-3.198-4.795-.13-3.633-.101-7.27-.117-10.904-.017-3.234-.004-6.468-.004-9.88l.002-.005z" fill="#fff"/></svg>