<svg width="14" height="12" viewBox="0 0 14 12" fill="none" xmlns="http://www.w3.org/2000/svg">
<path d="M13.748 5.95966L13.7463 5.97392V5.98828C13.7463 6.25962 13.5064 6.49063 13.2185 6.49063H12.4406H12.1895L12.1906 6.74176L12.2077 10.4953C12.2077 10.4955 12.2077 10.4956 12.2077 10.4958C12.2076 10.5464 12.2037 10.5994 12.1971 10.6565L12.1955 10.6708V10.6852V11.0625C12.1955 11.4339 11.881 11.75 11.4732 11.75H11.0843C11.0557 11.75 11.0399 11.7498 11.0259 11.7486L11.0064 11.7469L10.9869 11.7482C10.9629 11.7499 10.9374 11.75 10.902 11.75H10.112H9.52859C9.12079 11.75 8.80628 11.4339 8.80628 11.0625V10.5V9C8.80628 8.43857 8.33809 8 7.77844 8H6.22275C5.6631 8 5.19491 8.43857 5.19491 9V10.5V11.0625C5.19491 11.4339 4.8804 11.75 4.4726 11.75H3.88922H3.11381C3.08672 11.75 3.05827 11.7483 3.02046 11.7458L3.00242 11.7447L2.9844 11.7461C2.95353 11.7486 2.93437 11.75 2.91691 11.75H2.52799C2.1202 11.75 1.80569 11.4339 1.80569 11.0625V8.4375C1.80569 8.42643 1.8057 8.41868 1.8059 8.41151C1.80609 8.40441 1.8064 8.40116 1.80648 8.40049L1.80812 8.38623V8.37188V6.74063V6.49063H1.55812H0.777844C0.470231 6.49063 0.25 6.26642 0.25 5.98828C0.25 5.8464 0.29466 5.72581 0.410931 5.61128L6.6364 0.378881L6.64293 0.373391L6.64908 0.367469C6.74962 0.270527 6.86366 0.25 7.01032 0.25C7.14042 0.25 7.27276 0.28665 7.36196 0.357169L13.5673 5.6165L13.5677 5.61686C13.7213 5.74643 13.7597 5.85808 13.748 5.95966Z" stroke="#588C7F" stroke-width="0.5"/>
</svg>
