<svg width="217" height="75" viewBox="0 0 217 75" fill="none" xmlns="http://www.w3.org/2000/svg">
<g id="Warstwa_2">
<g id="DXV41i">
<g id="Group">
<path id="Vector" d="M15.7397 42.984V24.6884H32.856C30.6834 22.7018 29.5467 20.527 29.6981 17.8276C29.8233 15.6027 30.6713 13.6682 32.3654 12.1943C35.806 9.20045 40.6823 9.28256 43.8685 12.3645C46.5398 14.9479 47.9492 20.2086 43.289 24.6524H60.2438V68.9775H42.4672C44.9285 67.2212 46.3197 64.9923 46.344 62.1066C46.3621 59.8537 45.5464 57.8752 43.923 56.2531C40.7469 53.081 35.4527 53.0129 32.1938 56.171C30.3119 57.9933 29.4639 60.2542 29.7344 62.8736C29.9989 65.4389 31.3417 67.3874 33.5849 69.0015H15.7518V50.7039C13.8639 53.4895 11.5459 54.9874 8.41221 55.0255C6.03769 55.0535 3.98624 54.2385 2.34265 52.5523C-0.932409 49.196 -0.714341 43.777 2.65966 40.8392C6.17903 37.7753 12.2223 37.7152 15.7417 42.984H15.7397Z" fill="white"/>
<path id="Vector_2" d="M193.497 62.7494H190.793C190.775 62.375 190.745 62.0265 190.745 61.676C190.743 56.0368 190.795 50.3955 190.707 44.7563C190.682 43.2183 190.392 41.6382 189.939 40.1643C189.196 37.7392 187.337 36.3835 184.859 36.035C180.207 35.3822 176.637 37.4388 173.764 41.1656C173.572 41.4139 173.59 41.8585 173.59 42.211C173.58 48.6853 173.584 55.1597 173.584 61.634V62.7054H170.903V21.0237H173.55V39.0329C173.944 38.6244 174.152 38.4081 174.358 38.1918C177.118 35.3101 180.35 33.5418 184.512 33.7601C189.273 34.0124 192.241 36.4916 193.142 41.1796C193.366 42.3512 193.483 43.5607 193.491 44.7522C193.529 50.4596 193.511 56.165 193.511 61.8723C193.511 62.1306 193.527 62.391 193.497 62.7474V62.7494Z" fill="white"/>
<path id="Vector_3" d="M72.3461 47.3536C72.3522 50.5337 72.6389 53.4915 74.2199 56.181C76.3097 59.7376 79.5606 61.0533 83.5524 60.9311C86.2823 60.849 88.7356 59.9699 90.991 58.4579C92.2408 57.6189 92.4791 57.717 93.4099 59.287C92.4771 59.9358 91.5866 60.7088 90.5669 61.2355C87.3121 62.9137 83.8331 63.4904 80.2087 62.8937C76.0654 62.2108 72.9822 59.9719 71.3083 56.161C68.956 50.8061 68.7743 45.343 71.4557 40.0342C75.0417 32.9351 84.7982 32.12 89.62 36.011C92.2893 38.1638 93.4705 41.0615 93.8218 44.3598C93.8824 44.9225 93.8622 45.4932 93.9026 46.058C93.9672 46.9852 93.5775 47.3837 92.6103 47.3596C90.8294 47.3136 89.0445 47.3456 87.2616 47.3476C82.6519 47.3476 78.0442 47.3516 73.4345 47.3536C73.1033 47.3536 72.7722 47.3536 72.3461 47.3536ZM72.4855 45.5173H91.3504C91.4937 40.5088 88.7437 36.2854 83.6231 35.8308C77.816 35.3141 73.277 38.6925 72.4855 45.5173Z" fill="white"/>
<path id="Vector_4" d="M149.932 62.6653C148.21 62.9436 147.86 62.6693 147.721 61.0832C147.646 60.2301 147.513 59.383 147.394 58.4298C146.201 59.367 145.161 60.3062 144.004 61.0672C140.809 63.1679 137.298 63.8208 133.619 62.7213C130.942 61.9203 129.413 59.9358 128.997 57.1922C128.529 54.1082 129.775 51.7993 132.432 50.2152C135.14 48.6012 138.168 48.0024 141.242 47.6139C142.972 47.3956 144.725 47.3475 146.461 47.1653C146.758 47.1333 147.273 46.7948 147.265 46.6206C147.162 44.598 147.234 42.5173 146.756 40.5748C145.946 37.3046 143.584 35.8307 140.161 35.9188C137.787 35.9809 135.703 36.7679 133.835 38.1817C133.541 38.404 133.252 38.6323 132.957 38.8546C131.56 39.916 131.194 39.8279 130.407 38.2118C133.983 34.549 138.288 33.0191 143.382 33.9863C146.831 34.6412 149.165 37.4808 149.76 41.5981C149.89 42.4873 149.956 43.3924 149.958 44.2896C149.974 50.1952 149.966 56.1028 149.964 62.0084C149.964 62.2067 149.946 62.4049 149.932 62.6633V62.6653ZM147.303 48.9736C143.182 49.1559 139.228 49.3802 135.501 50.9001C133.9 51.553 132.438 52.4641 131.812 54.2204C130.623 57.5527 133.048 61.0011 136.684 61.2114C140.953 61.4597 144.254 59.5953 147.049 56.6035C147.192 56.4513 147.289 56.1949 147.291 55.9867C147.307 53.6957 147.301 51.4048 147.301 48.9756L147.303 48.9736Z" fill="white"/>
<path id="Vector_5" d="M214.403 58.3758C213.319 59.269 212.447 60.1161 211.453 60.7849C207.92 63.164 204.088 64.0772 200.003 62.4431C195.25 60.5426 194.458 53.9501 198.527 50.8541C200.982 48.9857 203.886 48.2728 206.85 47.8262C209.071 47.4918 211.328 47.4057 213.563 47.1634C213.832 47.1333 214.284 46.823 214.288 46.6347C214.335 44.3037 214.426 41.9547 213.519 39.7298C212.572 37.4028 210.811 36.1792 208.293 35.971C205.362 35.7287 202.795 36.5778 200.542 38.4241C200.334 38.5943 200.116 38.7505 199.9 38.9108C198.541 39.908 198.171 39.8099 197.416 38.2079C201.083 34.469 205.493 32.911 210.676 34.0705C214.062 34.8275 215.821 37.3067 216.546 40.5128C216.859 41.8986 216.96 43.3525 216.972 44.7783C217.018 50.3835 216.99 55.9908 216.99 61.598C216.99 61.9564 216.99 62.3169 216.99 62.6533C215.253 62.9517 214.908 62.6914 214.741 61.1013C214.65 60.2442 214.529 59.3911 214.401 58.3758H214.403ZM214.325 48.9757C210.195 49.1459 206.234 49.3622 202.529 50.9122C201.422 51.3748 200.322 52.1258 199.542 53.0229C198.182 54.591 198.333 56.4894 199.124 58.2937C199.962 60.1982 201.606 61.0353 203.603 61.1895C207.906 61.5219 211.245 59.6214 214.07 56.6056C214.197 56.4714 214.313 56.2611 214.313 56.0849C214.329 53.7599 214.323 51.4369 214.323 48.9737L214.325 48.9757Z" fill="white"/>
<path id="Vector_6" d="M118.506 62.7214H115.81V37.1725C114.591 37.0984 113.462 37.0303 112.333 36.9602C110.932 36.8721 110.756 36.6458 110.985 35.0858H115.796C115.796 33.9163 115.8 32.8609 115.796 31.8056C115.786 29.3364 116.119 26.9573 117.607 24.8706C119.449 22.2913 122.114 21.5504 125.102 21.6365C126.053 21.6645 126.994 21.9389 127.901 22.0931C128.026 23.9334 128.026 23.9074 126.336 23.8133C125.434 23.7632 124.509 23.7272 123.622 23.8673C120.771 24.3179 119.162 26.1243 118.748 28.8558C118.447 30.8483 118.476 32.889 118.348 35.0397H127.733V37.1084H118.502V62.7214H118.506Z" fill="white"/>
<path id="Vector_7" d="M100.626 62.7214H97.9308V37.1725C96.7112 37.0984 95.5825 37.0303 94.4538 36.9602C93.0525 36.8721 92.8769 36.6458 93.105 35.0858H97.9167C97.9167 33.9163 97.9207 32.8609 97.9167 31.8056C97.9066 29.3364 98.2397 26.9573 99.7278 24.8706C101.569 22.2913 104.235 21.5504 107.223 21.6365C108.174 21.6645 109.115 21.9389 110.021 22.0931C110.147 23.9334 110.147 23.9074 108.457 23.8133C107.554 23.7632 106.629 23.7272 105.743 23.8673C102.892 24.3179 101.283 26.1243 100.869 28.8558C100.568 30.8483 100.596 32.889 100.469 35.0397H109.854V37.1084H100.622V62.7214H100.626Z" fill="white"/>
<path id="Vector_8" d="M156.111 37.1062C154.891 37.1062 153.789 37.1102 152.686 37.1062C151.299 37.1002 151.15 36.93 151.313 35.406C152.884 35.2799 154.477 35.1517 156.151 35.0175C156.288 33.1551 156.426 31.3388 156.557 29.5224C156.646 28.2929 156.739 27.0613 156.803 25.8297C156.894 24.1195 156.959 24.0574 158.834 24.2296V35.0215H167.888V37.0802H158.865C158.865 37.5788 158.865 37.9353 158.865 38.2917C158.865 44.1633 158.865 50.0349 158.865 55.9044C158.865 56.1387 158.861 56.371 158.871 56.6053C159.018 60.3682 161.926 62.0584 165.312 60.3442C165.611 60.194 165.905 60.0297 166.18 59.8435C167.163 59.1786 167.946 59.3976 168.53 60.5004C166.445 62.9235 162.338 63.9127 159.428 62.6892C157.296 61.792 156.308 60.0618 156.23 57.895C156.1 54.2623 156.129 50.6256 156.113 46.9909C156.096 43.7568 156.109 40.5226 156.109 37.1102L156.111 37.1062Z" fill="white"/>
</g>
</g>
</g>
</svg>
