<svg width="132" height="36" viewBox="0 0 132 36" fill="none" xmlns="http://www.w3.org/2000/svg">
<g id="Warstwa_2" clip-path="url(#clip0_22_2)">
<g id="DXV41i">
<g id="Group">
<path id="Vector" d="M9.57434 20.1262V8.96277H19.9861C18.6645 7.75064 17.973 6.42364 18.0652 4.7765C18.1413 3.41895 18.6572 2.23859 19.6877 1.33926C21.7806 -0.487502 24.7468 -0.437403 26.6849 1.44312C28.3099 3.01939 29.1672 6.22935 26.3324 8.94078H36.6459V35.9866H25.8325C27.3298 34.915 28.176 33.555 28.1908 31.7942C28.2018 30.4196 27.7056 29.2123 26.7181 28.2226C24.7861 26.2871 21.5656 26.2455 19.5833 28.1725C18.4385 29.2844 17.9227 30.6639 18.0873 32.2622C18.2482 33.8275 19.0649 35.0164 20.4295 36.0013H9.58171V24.8366C8.43331 26.5363 7.02329 27.4503 5.11706 27.4735C3.67265 27.4906 2.42476 26.9933 1.42498 25.9645C-0.567224 23.9165 -0.434575 20.61 1.61781 18.8175C3.75863 16.948 7.43475 16.9113 9.57557 20.1262H9.57434Z" fill="#588C7F"/>
<path id="Vector_2" d="M117.703 32.1864H116.059C116.048 31.9579 116.029 31.7453 116.029 31.5315C116.028 28.0906 116.06 24.6484 116.006 21.2075C115.991 20.2691 115.814 19.305 115.539 18.4057C115.087 16.9259 113.956 16.0987 112.449 15.8861C109.619 15.4877 107.448 16.7427 105.7 19.0166C105.583 19.1681 105.594 19.4394 105.594 19.6545C105.588 23.6049 105.59 27.5554 105.59 31.5058V32.1595H103.959V6.72663H105.57V17.7153C105.809 17.466 105.936 17.3341 106.061 17.2021C107.74 15.4438 109.706 14.3648 112.238 14.498C115.134 14.652 116.939 16.1647 117.487 19.0252C117.623 19.74 117.695 20.478 117.7 21.2051C117.723 24.6875 117.712 28.1688 117.712 31.6512C117.712 31.8088 117.722 31.9677 117.703 32.1852V32.1864Z" fill="#141414"/>
<path id="Vector_3" d="M44.0078 22.7923C44.0115 24.7327 44.1859 26.5375 45.1476 28.1785C46.4188 30.3487 48.3963 31.1515 50.8245 31.0769C52.4851 31.0268 53.9774 30.4904 55.3493 29.5679C56.1096 29.0559 56.2545 29.1157 56.8208 30.0737C56.2533 30.4696 55.7117 30.9413 55.0914 31.2626C53.1115 32.2866 50.9952 32.6385 48.7905 32.2744C46.2702 31.8577 44.3947 30.4916 43.3765 28.1663C41.9456 24.8989 41.835 21.5655 43.4661 18.3263C45.6475 13.9946 51.5823 13.4973 54.5154 15.8714C56.1391 17.185 56.8576 18.9531 57.0713 20.9656C57.1082 21.3089 57.0959 21.6572 57.1205 22.0018C57.1598 22.5675 56.9227 22.8107 56.3344 22.796C55.2511 22.7679 54.1653 22.7875 53.0808 22.7887C50.2767 22.7887 47.4739 22.7911 44.6698 22.7923C44.4684 22.7923 44.2669 22.7923 44.0078 22.7923ZM44.0925 21.6719H55.568C55.6552 18.6158 53.9823 16.0388 50.8675 15.7615C47.3351 15.4462 44.574 17.5076 44.0925 21.6719Z" fill="#141414"/>
<path id="Vector_4" d="M91.2028 32.1351C90.1551 32.3049 89.9427 32.1375 89.8579 31.1698C89.8125 30.6493 89.7314 30.1324 89.6589 29.5507C88.933 30.1226 88.3005 30.6957 87.5967 31.16C85.6536 32.4418 83.5177 32.8401 81.2799 32.1693C79.6513 31.6805 78.7215 30.4696 78.4685 28.7956C78.1835 26.9139 78.9413 25.505 80.5577 24.5385C82.2048 23.5536 84.0471 23.1882 85.9165 22.9512C86.9691 22.818 88.0352 22.7887 89.0915 22.6775C89.272 22.6579 89.5852 22.4514 89.5803 22.3451C89.5177 21.111 89.5619 19.8414 89.2708 18.6562C88.7783 16.6608 87.3412 15.7615 85.2594 15.8152C83.815 15.8531 82.5474 16.3333 81.4113 17.196C81.232 17.3316 81.0564 17.4709 80.877 17.6065C80.0271 18.2542 79.8048 18.2004 79.3258 17.2143C81.501 14.9794 84.1196 14.0459 87.2184 14.6361C89.3163 15.0356 90.7361 16.7683 91.0984 19.2806C91.177 19.8231 91.2176 20.3754 91.2188 20.9228C91.2286 24.5262 91.2237 28.1309 91.2225 31.7343C91.2225 31.8553 91.2114 31.9762 91.2028 32.1339V32.1351ZM89.6037 23.7809C87.0968 23.8921 84.6919 24.0289 82.4246 24.9564C81.4506 25.3547 80.5614 25.9107 80.1806 26.9823C79.4572 29.0156 80.9323 31.1197 83.1444 31.248C85.7409 31.3995 87.749 30.2619 89.4489 28.4364C89.5361 28.3435 89.5951 28.1871 89.5963 28.06C89.6061 26.6621 89.6024 25.2643 89.6024 23.7821L89.6037 23.7809Z" fill="#141414"/>
<path id="Vector_5" d="M130.42 29.5178C129.761 30.0627 129.23 30.5796 128.626 30.9877C126.477 32.4394 124.145 32.9965 121.661 31.9995C118.769 30.8399 118.288 26.8173 120.763 24.9282C122.256 23.7882 124.023 23.3532 125.826 23.0807C127.177 22.8767 128.55 22.8241 129.91 22.6763C130.073 22.6579 130.348 22.4685 130.35 22.3537C130.379 20.9314 130.434 19.4981 129.883 18.1405C129.306 16.7207 128.235 15.9741 126.704 15.847C124.92 15.6991 123.359 16.2172 121.989 17.3438C121.862 17.4477 121.729 17.543 121.598 17.6408C120.771 18.2493 120.547 18.1894 120.087 17.2119C122.318 14.9306 125 13.9799 128.153 14.6874C130.213 15.1493 131.283 16.662 131.724 18.6183C131.914 19.4639 131.975 20.351 131.983 21.221C132.011 24.6411 131.994 28.0625 131.994 31.4838C131.994 31.7025 131.994 31.9225 131.994 32.1278C130.938 32.3098 130.728 32.151 130.626 31.1808C130.57 30.6578 130.497 30.1373 130.419 29.5178H130.42ZM130.373 23.7821C127.861 23.886 125.451 24.0179 123.197 24.9637C122.524 25.2459 121.855 25.7042 121.381 26.2516C120.553 27.2083 120.645 28.3667 121.126 29.4677C121.636 30.6297 122.636 31.1405 123.851 31.2345C126.468 31.4374 128.5 30.2778 130.218 28.4376C130.295 28.3557 130.365 28.2274 130.365 28.1199C130.375 26.7012 130.371 25.2838 130.371 23.7809L130.373 23.7821Z" fill="#141414"/>
<path id="Vector_6" d="M72.0865 32.1693H70.4468V16.5801C69.705 16.5349 69.0184 16.4934 68.3318 16.4506C67.4794 16.3969 67.3725 16.2588 67.5113 15.3069H70.4382C70.4382 14.5933 70.4407 13.9494 70.4382 13.3054C70.4321 11.7988 70.6347 10.3472 71.54 9.07393C72.6601 7.50011 74.2814 7.048 76.0992 7.10054C76.6777 7.11765 77.25 7.28505 77.8015 7.37914C77.8777 8.50207 77.8777 8.48619 76.8496 8.42876C76.3006 8.39821 75.7381 8.37622 75.1989 8.46175C73.4646 8.73668 72.4857 9.83885 72.2339 11.5055C72.0509 12.7213 72.0681 13.9665 71.9907 15.2788H77.6996V16.541H72.0841V32.1693H72.0865Z" fill="#141414"/>
<path id="Vector_7" d="M61.2105 32.1693H59.5708V16.5801C58.8289 16.5349 58.1423 16.4934 57.4558 16.4506C56.6034 16.3969 56.4965 16.2588 56.6353 15.3069H59.5622C59.5622 14.5933 59.5646 13.9494 59.5622 13.3054C59.556 11.7988 59.7587 10.3472 60.6639 9.07393C61.7841 7.50011 63.4053 7.048 65.2231 7.10054C65.8016 7.11765 66.374 7.28505 66.9255 7.37914C67.0016 8.50207 67.0016 8.48619 65.9736 8.42876C65.4246 8.39821 64.862 8.37622 64.3228 8.46175C62.5886 8.73668 61.6097 9.83885 61.3579 11.5055C61.1749 12.7213 61.1921 13.9665 61.1147 15.2788H66.8235V16.541H61.208V32.1693H61.2105Z" fill="#141414"/>
<path id="Vector_8" d="M94.9612 16.5398C94.2194 16.5398 93.5488 16.5423 92.8782 16.5398C92.0344 16.5361 91.9435 16.4323 92.043 15.5024C92.9985 15.4254 93.9676 15.3472 94.9858 15.2654C95.0693 14.129 95.1528 13.0207 95.2327 11.9124C95.2867 11.1622 95.3432 10.4107 95.3825 9.65922C95.4378 8.61571 95.4771 8.57783 96.6181 8.68291V15.2678H102.126V16.5239H96.6366C96.6366 16.8282 96.6366 17.0457 96.6366 17.2632C96.6366 20.8458 96.6366 24.4285 96.6366 28.0099C96.6366 28.1529 96.6341 28.2946 96.6402 28.4376C96.7299 30.7336 98.4986 31.7648 100.558 30.7189C100.74 30.6272 100.919 30.5271 101.086 30.4134C101.684 30.0077 102.161 30.1413 102.516 30.8142C101.247 32.2927 98.7491 32.8963 96.9792 32.1497C95.6822 31.6023 95.0816 30.5466 95.0337 29.2245C94.9551 27.0079 94.9723 24.7889 94.9625 22.5712C94.9526 20.5978 94.96 18.6244 94.96 16.5423L94.9612 16.5398Z" fill="#141414"/>
</g>
</g>
</g>
<defs>
<clipPath id="clip0_22_2">
<rect width="132" height="36" fill="white"/>
</clipPath>
</defs>
</svg>
