<svg width="31" height="30" viewBox="0 0 31 30" fill="none" xmlns="http://www.w3.org/2000/svg">
<path id="Vector" d="M30.6814 11.2367L19.9266 29.8646L0.896241 18.8774L5.53292 10.8464C5.51717 10.8178 5.49289 10.7932 5.46174 10.7752C5.41328 10.7472 5.35835 10.7411 5.30829 10.7559C5.30222 10.7584 5.295 10.7603 5.28893 10.7628C5.28893 10.7628 5.28647 10.7644 5.28532 10.7637C4.64927 10.9807 3.92006 10.9302 3.28549 10.5638C2.50438 10.1128 2.06672 9.30148 2.06652 8.47316C2.0666 8.07868 2.16675 7.67873 2.37736 7.31394C3.02875 6.18569 4.49146 5.81047 5.64523 6.4766C6.27981 6.84297 6.68887 7.44807 6.81893 8.10742L6.82008 8.10809C6.82008 8.10809 6.81943 8.10922 6.82058 8.10988C6.82078 8.11753 6.82279 8.12471 6.82414 8.13302C6.83704 8.18263 6.8698 8.22714 6.9171 8.25445C6.94825 8.27244 6.98051 8.28052 7.01437 8.28049L11.6511 0.249524L19.7171 4.90645C19.8051 4.96179 19.8354 5.07717 19.7833 5.16752C19.7565 5.21382 19.7121 5.24541 19.6629 5.25613C19.6556 5.25798 19.6473 5.25917 19.6389 5.26035L19.6377 5.25969C19.6377 5.25969 19.6377 5.25969 19.6353 5.26128C18.9718 5.37664 18.3677 5.77022 18.0084 6.39251C17.357 7.52075 17.7627 8.97624 18.9154 9.6417C19.288 9.85686 19.6942 9.96337 20.093 9.97075C20.9303 9.98588 21.7431 9.56669 22.1839 8.80323C22.5432 8.18095 22.5808 7.4603 22.349 6.82802C22.3496 6.82689 22.3485 6.82622 22.3491 6.82509L22.348 6.82443C22.348 6.82443 22.3433 6.81119 22.3413 6.80401C22.3254 6.7542 22.3299 6.70109 22.358 6.65253C22.4088 6.56444 22.5209 6.53279 22.613 6.57843L30.6814 11.2367Z" fill="#588C7F"/>
</svg>
