<svg width="14" height="12" fill="none" xmlns="http://www.w3.org/2000/svg"><path d="M13.748 5.96l-.002.014v.014c0 .272-.24.503-.527.503h-1.03l.002.25.017 3.754s0 0 0 0c0 .051-.004.104-.01.162l-.003.014v.391c0 .372-.314.688-.722.688h-.389l-.058-.001-.02-.002-.02.001c-.023.002-.049.002-.084.002H9.529c-.408 0-.723-.316-.723-.688V9c0-.561-.468-1-1.028-1H6.223c-.56 0-1.028.439-1.028 1v2.063c0 .37-.315.687-.722.687H3.114c-.027 0-.056-.002-.094-.004l-.018-.001-.018.001a.865.865 0 01-.067.004h-.389c-.408 0-.722-.316-.722-.688V8.438a.96.96 0 010-.038l.002-.014V6.491H.778C.47 6.49.25 6.266.25 5.988c0-.142.045-.262.16-.377L6.637.38l.007-.006.006-.006c.1-.096.215-.117.361-.117.13 0 .263.037.352.107l6.205 5.26h0c.154.13.193.241.181.343z" stroke="#588C7F" stroke-width=".5"/></svg>