<svg width="132" height="36" fill="none" xmlns="http://www.w3.org/2000/svg"><g clip-path="url(#clip0_22_2)"><path d="M9.574 20.126V8.963h10.412c-1.322-1.212-2.013-2.54-1.92-4.186.075-1.358.591-2.538 1.622-3.438 2.093-1.827 5.059-1.776 6.997.104 1.625 1.576 2.482 4.786-.353 7.498h10.314v27.046H25.832c1.498-1.072 2.344-2.432 2.359-4.193.01-1.374-.485-2.582-1.473-3.571-1.932-1.936-5.152-1.977-7.135-.05-1.144 1.111-1.66 2.49-1.496 4.09.161 1.565.978 2.753 2.343 3.738H9.582V24.837c-1.149 1.7-2.559 2.613-4.465 2.637-1.444.017-2.692-.48-3.692-1.51-1.992-2.047-1.86-5.354.193-7.146 2.14-1.87 5.817-1.907 7.958 1.308h-.002z" fill="#588C7F"/><path d="M117.703 32.186h-1.644c-.011-.228-.03-.44-.03-.654-.001-3.441.031-6.884-.023-10.325-.015-.938-.192-1.902-.467-2.801-.452-1.48-1.583-2.307-3.09-2.52-2.83-.398-5.001.857-6.749 3.13-.117.152-.106.423-.106.639-.006 3.95-.004 7.9-.004 11.85v.655h-1.631V6.727h1.611v10.988c.239-.249.366-.38.491-.513 1.679-1.758 3.645-2.837 6.177-2.704 2.896.154 4.701 1.667 5.249 4.527.136.715.208 1.453.213 2.18.023 3.483.012 6.964.012 10.446 0 .158.01.317-.009.534v.001zm-73.695-9.394c.003 1.94.178 3.745 1.14 5.386 1.27 2.17 3.248 2.973 5.676 2.899 1.661-.05 3.153-.587 4.525-1.51.76-.511.906-.451 1.472.507-.568.396-1.11.867-1.73 1.189-1.98 1.024-4.096 1.375-6.3 1.011-2.52-.416-4.396-1.782-5.414-4.108-1.431-3.267-1.542-6.6.09-9.84 2.18-4.331 8.115-4.829 11.048-2.455 1.624 1.314 2.343 3.082 2.556 5.095.037.343.025.691.05 1.036.039.566-.198.809-.787.794-1.083-.028-2.169-.008-3.253-.007-2.804 0-5.607.002-8.411.003h-.662zm.084-1.12h11.476c.087-3.056-1.586-5.633-4.7-5.91-3.533-.316-6.294 1.746-6.776 5.91zm47.111 10.463c-1.048.17-1.26.003-1.345-.965-.046-.52-.127-1.038-.2-1.62-.725.573-1.358 1.146-2.061 1.61-1.943 1.282-4.08 1.68-6.317 1.01-1.629-.49-2.558-1.7-2.811-3.374-.285-1.882.472-3.291 2.089-4.258 1.647-.984 3.49-1.35 5.358-1.587 1.053-.133 2.12-.162 3.175-.274.181-.02.494-.226.49-.332-.063-1.234-.02-2.504-.31-3.689-.493-1.995-1.93-2.894-4.012-2.84-1.444.037-2.712.517-3.848 1.38-.179.136-.355.275-.534.41-.85.648-1.072.594-1.551-.392 2.175-2.235 4.794-3.168 7.892-2.578 2.098.4 3.518 2.132 3.88 4.645.079.542.12 1.094.12 1.642.01 3.603.006 7.208.004 10.811 0 .121-.01.242-.02.4v.001zm-1.6-8.354c-2.506.111-4.911.248-7.178 1.175-.974.399-1.864.955-2.244 2.026-.724 2.034.751 4.138 2.963 4.266 2.597.151 4.605-.986 6.305-2.812a.606.606 0 00.147-.376c.01-1.398.006-2.796.006-4.278l.002-.001zm40.817 5.737c-.659.545-1.19 1.062-1.794 1.47-2.149 1.451-4.481 2.008-6.965 1.012-2.892-1.16-3.373-5.183-.898-7.072 1.493-1.14 3.26-1.575 5.063-1.847 1.351-.204 2.724-.257 4.084-.405.163-.018.438-.207.44-.322.029-1.423.084-2.856-.467-4.213-.577-1.42-1.648-2.167-3.179-2.294-1.784-.148-3.345.37-4.715 1.497-.127.104-.26.199-.391.297-.827.608-1.051.548-1.511-.43 2.231-2.28 4.913-3.231 8.066-2.524 2.06.462 3.13 1.975 3.571 3.931.19.846.251 1.733.259 2.603.028 3.42.011 6.841.011 10.263v.644c-1.056.182-1.266.023-1.368-.947-.056-.523-.129-1.044-.207-1.663h.001zm-.047-5.736c-2.512.104-4.922.236-7.176 1.182-.673.282-1.342.74-1.816 1.288-.828.956-.736 2.115-.255 3.216.51 1.162 1.51 1.672 2.725 1.767 2.617.202 4.649-.957 6.367-2.797a.522.522 0 00.147-.318c.01-1.419.006-2.836.006-4.34l.002.002zM72.087 32.17h-1.64V16.58l-2.115-.13c-.853-.053-.96-.191-.82-1.143h2.926c0-.714.003-1.358 0-2.002-.006-1.506.197-2.958 1.102-4.231C72.66 7.5 74.281 7.048 76.1 7.1c.578.017 1.15.184 1.702.278.076 1.123.076 1.107-.952 1.05-.55-.03-1.112-.053-1.651.033-1.734.275-2.713 1.377-2.965 3.043-.183 1.216-.166 2.461-.243 3.774H77.7v1.262h-5.616v15.628h.002zm-10.877 0h-1.64V16.58l-2.114-.13c-.853-.053-.96-.191-.82-1.143h2.926c0-.714.003-1.358 0-2.002-.006-1.506.197-2.958 1.102-4.231 1.12-1.574 2.741-2.026 4.56-1.973.578.017 1.15.184 1.701.278.077 1.123.077 1.107-.951 1.05-.55-.03-1.112-.053-1.651.033-1.734.275-2.713 1.377-2.965 3.043-.183 1.216-.166 2.461-.243 3.774h5.708v1.262h-5.615v15.628h.003zm33.751-15.63c-.742 0-1.412.002-2.083 0-.844-.004-.934-.108-.835-1.038l2.943-.237c.083-1.136.167-2.244.247-3.353.054-.75.11-1.501.15-2.253.055-1.043.094-1.081 1.235-.976v6.585h5.508v1.256h-5.49V28.01c0 .143-.002.285.004.428.09 2.296 1.859 3.327 3.918 2.28.182-.09.361-.19.528-.305.598-.405 1.075-.272 1.43.401-1.269 1.479-3.767 2.082-5.537 1.336-1.297-.548-1.897-1.603-1.945-2.925-.079-2.217-.062-4.436-.072-6.654-.01-1.973-.002-3.947-.002-6.029l.001-.002z" fill="#141414"/></g><defs><clipPath id="clip0_22_2"><path fill="#fff" d="M0 0h132v36H0z"/></clipPath></defs></svg>