<svg width="31" height="30" fill="none" xmlns="http://www.w3.org/2000/svg"><path d="M30.681 11.237L19.927 29.865.897 18.877l4.636-8.03a.187.187 0 00-.071-.072.195.195 0 00-.154-.02l-.02.008h-.003a2.427 2.427 0 01-2-.2 2.419 2.419 0 01-1.218-2.09c0-.394.1-.794.31-1.16.652-1.127 2.114-1.503 3.268-.836a2.426 2.426 0 011.174 1.63l.001.001v.002c0 .008.003.015.004.023a.198.198 0 00.19.147L11.651.25l8.066 4.656a.196.196 0 01.066.262.185.185 0 01-.144.092h-.001l-.003.001a2.329 2.329 0 00-1.627 1.132c-.651 1.128-.245 2.583.907 3.249.373.215.78.321 1.178.329a2.353 2.353 0 002.09-1.168 2.33 2.33 0 00.166-1.975v-.003h-.001l-.007-.021a.185.185 0 01.017-.151.194.194 0 01.255-.075l8.068 4.659z" fill="#588C7F"/></svg>