<svg width="180" height="158" viewBox="0 0 180 158" fill="none" xmlns="http://www.w3.org/2000/svg">
<path d="M13.7497 61.12C13.7497 43.66 13.8897 26.2 13.6797 8.74C13.5997 3.15 16.8297 -0.429997 22.5397 0.0400027C24.7697 0.220003 27.0297 0.0200027 29.2697 0.0900027C32.8997 0.200003 35.7397 2.9 35.9797 6.51C36.1097 8.5 36.0597 10.5 36.0597 12.49C36.0597 46.41 36.0497 80.33 36.0397 114.25C36.0397 117.51 36.1197 117.6 39.3697 117.61C40.9497 117.61 42.5297 117.65 44.1097 117.61C46.1797 117.55 48.1497 117.65 49.1897 119.87C50.2597 122.14 50.2897 124.41 48.8397 126.49C45.5097 131.26 42.1097 135.97 38.7297 140.7C35.3997 145.36 32.0497 150.01 28.7297 154.68C26.0397 158.46 23.9097 158.52 21.2397 154.8C14.6997 145.69 8.11969 136.61 1.70969 127.41C0.689693 125.95 0.0496927 123.94 0.00969266 122.16C-0.0603073 119.23 1.82969 117.69 4.77969 117.63C6.60969 117.59 8.43969 117.63 10.2697 117.62C13.7297 117.61 13.7397 117.6 13.7497 114.24C13.7497 96.53 13.7497 78.82 13.7497 61.11V61.12Z" fill="black"/>
<path d="M120.11 19.87C103.41 19.87 86.6996 19.87 69.9996 19.87C64.1096 19.87 61.1596 16.91 61.0096 11.02C60.8996 6.77 61.2196 2.75 65.8096 0.780002C66.8396 0.340002 68.0396 0.120002 69.1696 0.120002C103.16 0.0800018 137.15 0.0700018 171.14 0.0900018C176.43 0.0900018 179.27 3.19 179.57 8.45C180.06 17.02 176.88 20.14 168.23 19.97C152.2 19.65 136.15 19.88 120.11 19.88V19.87Z" fill="black"/>
<path d="M110.779 65.77C97.1494 65.77 83.5294 65.77 69.8994 65.77C64.1794 65.77 61.1194 62.76 61.0194 57.06C60.9994 55.98 60.9494 54.9 61.0194 53.82C61.3394 49 64.4494 45.99 69.2594 45.98C97.0094 45.95 124.769 45.94 152.519 45.97C157.519 45.97 160.549 49.09 160.649 54.06C160.649 54.14 160.649 54.23 160.649 54.31C161.399 63.09 157.719 66.09 149.409 65.86C136.539 65.5 123.649 65.77 110.769 65.77H110.779Z" fill="black"/>
<path d="M99.9101 111.68C89.9401 111.68 79.9601 111.69 69.9901 111.68C64.1101 111.68 61.0901 108.66 61.0201 102.81C61.0101 101.73 60.9501 100.65 61.0401 99.57C61.4001 94.92 64.5601 91.89 69.1901 91.89C89.7201 91.87 110.24 91.86 130.77 91.89C135.54 91.89 138.54 94.8 138.84 99.5C138.84 99.58 138.84 99.67 138.85 99.75C139.51 108.18 137.01 112.1 127.59 111.76C118.38 111.43 109.14 111.69 99.9201 111.69L99.9101 111.68Z" fill="black"/>
<path d="M88.8395 157.58C82.3595 157.58 75.8795 157.61 69.3995 157.57C64.3395 157.54 61.2295 154.46 61.0295 149.36C60.9795 148.12 60.9795 146.87 61.0495 145.62C61.3195 140.82 64.4595 137.8 69.2695 137.79C82.3195 137.76 95.3595 137.76 108.409 137.79C113.329 137.79 116.459 140.93 116.589 145.87C116.619 147.11 116.629 148.36 116.589 149.61C116.459 154.38 113.299 157.54 108.539 157.57C101.979 157.61 95.4095 157.58 88.8495 157.58H88.8395Z" fill="black"/>
</svg>
